Coordinates
version=1
nRows=16
nColumns=40
inDegrees=yes

Units are S.I. units (second, meters, Newtons, ...)
Angles are in degrees.

endheader
time	pelvis_tilt	pelvis_list	pelvis_rotation	pelvis_tx	pelvis_ty	pelvis_tz	hip_flexion_r	hip_adduction_r	hip_rotation_r	knee_angle_r	knee_angle_r_beta	ankle_angle_r	subtalar_angle_r	mtp_angle_r	hip_flexion_l	hip_adduction_l	hip_rotation_l	knee_angle_l	knee_angle_l_beta	ankle_angle_l	subtalar_angle_l	mtp_angle_l	lumbar_extension	lumbar_bending	lumbar_rotation	arm_flex_r	arm_add_r	arm_rot_r	elbow_flex_r	pro_sup_r	wrist_flex_r	wrist_dev_r	arm_flex_l	arm_add_l	arm_rot_l	elbow_flex_l	pro_sup_l	wrist_flex_l	wrist_dev_l
     52.65000000	     -1.83928714	     -4.85238213	     -2.93623109	      1.05684078	      0.92592583	      0.48467744	     17.71055169	      1.55005764	    -11.58164772	     22.41818839	     22.41818839	      8.35262350	     -2.01220969	     -4.41769461	      6.57865972	    -11.00002374	     -7.76340692	     35.87595072	     35.87595072	     16.67635473	    -14.32462253	     -1.98251925	     -9.19401639	      6.86959204	      0.07543635	      3.78653691	    -13.76358689	     -7.63157780	     36.58957217	     45.96084388	      0.00000000	      0.00000000	     15.04015629	    -12.62004087	     -5.36169253	     64.05441115	     46.91110120	      0.00000000	      0.00000000
     52.66285714	     -1.71510186	     -4.90355163	     -2.47122436	      1.05629763	      0.92631390	      0.48660326	     17.16979618	      1.57613212	    -12.19697000	     22.36747233	     22.36747233	      8.74516374	     -1.60537472	     -4.50284619	      8.31326479	    -11.39317778	     -6.64140913	     39.40823705	     39.40823705	     15.56686170	    -15.42073821	     -1.71545299	     -9.30864662	      7.00291048	      0.28268280	      4.72945442	    -14.24718927	     -6.40680379	     37.05318265	     45.87534952	      0.00000000	      0.00000000	     15.28987836	    -11.92293259	     -5.58445410	     61.31127093	     46.90777908	      0.00000000	      0.00000000
     52.67571429	     -1.53051080	     -5.03821075	     -2.04483699	      1.05565764	      0.92677681	      0.48865391	     16.49430440	      1.77243854	    -12.65845618	     22.17210977	     22.17210977	      9.05558398	     -1.45401537	     -4.58158795	      9.99753874	    -11.92187289	     -5.74247790	     42.83370531	     42.83370531	     14.37746177	    -16.17469814	     -1.65865205	     -9.60216973	      7.17624641	      0.45692117	      5.88305701	    -14.53163661	     -6.33661634	     37.50703805	     45.86176112	      0.00000000	      0.00000000	     14.82699657	    -11.57110020	     -5.43771722	     60.61935943	     46.88460656	      0.00000000	      0.00000000
     52.68857143	     -1.55529608	     -5.03110017	     -1.58321361	      1.05490316	      0.92708820	      0.49030880	     16.01834006	      1.76457424	    -13.29105237	     21.91039977	     21.91039977	      9.32862718	     -0.96478797	     -4.81381510	     12.00117081	    -12.11830530	     -4.64889171	     46.19858488	     46.19858488	     14.09287748	    -16.68566694	      0.99135482	     -9.48267418	      7.24592707	      0.60800232	      6.85226410	    -15.03614639	     -5.15915076	     37.85309484	     45.78845671	      0.00000000	      0.00000000	     15.01913352	    -10.94165471	     -5.54480486	     57.29077969	     46.86020961	      0.00000000	      0.00000000
     52.70142857	     -1.46866717	     -5.11129282	     -1.17891153	      1.05409447	      0.92753894	      0.49213637	     15.40705485	      1.94567164	    -13.64828486	     21.58651685	     21.58651685	      9.58396743	     -0.84667129	     -4.85779920	     13.72412781	    -12.49116054	     -3.90666636	     49.00969011	     49.00969011	     13.11316219	    -17.17891912	      1.50687084	     -9.66931995	      7.32830789	      0.78126365	      7.96966527	    -15.34674899	     -5.07096588	     38.31545199	     45.77374083	      0.00000000	      0.00000000	     14.38223905	    -10.63998873	     -5.42991602	     56.39283515	     46.83490791	      0.00000000	      0.00000000
     52.71428571	     -1.40468832	     -5.03763316	     -0.79395347	      1.05318712	      0.92814554	      0.49369283	     14.81532431	      1.94017257	    -14.04902866	     21.22739639	     21.22739639	      9.72373406	     -0.62935486	     -5.11163666	     15.50621520	    -12.56799469	     -3.15330615	     51.64794690	     51.64794690	     13.71746000	    -17.17344817	      5.84580674	     -9.73048006	      7.26958253	      1.18297682	      8.96331899	    -15.95699436	     -3.82912100	     38.57265702	     45.70572897	      0.00000000	      0.00000000	     14.69377360	     -9.95395352	     -5.68392224	     52.94401780	     46.81951831	      0.00000000	      0.00000000
     52.72714286	     -1.36040151	     -5.03136390	     -0.43896729	      1.05224392	      0.92874245	      0.49537299	     14.22106509	      2.06290631	    -14.30958390	     20.80472071	     20.80472071	      9.90378938	     -0.52429612	     -5.11217996	     17.07181635	    -12.80669974	     -2.70073070	     53.46003769	     53.46003769	     13.00647357	    -17.56795538	      6.30211203	     -9.86798803	      7.24888526	      1.29585170	     10.09914023	    -16.19194813	     -3.79188139	     39.04265945	     45.69421017	      0.00000000	      0.00000000	     13.88593615	     -9.78616386	     -5.62077668	     51.92475481	     46.79450754	      0.00000000	      0.00000000
     52.74000000	     -1.29744341	     -4.91351752	     -0.10759202	      1.05122368	      0.92950115	      0.49692589	     13.60843814	      2.06381017	    -14.55685289	     20.36515843	     20.36515843	      9.98724559	     -0.40109637	     -5.34364305	     18.55943814	    -12.87489491	     -2.34201456	     54.85194622	     54.85194622	     13.30676019	    -17.67818175	      8.81526310	     -9.96098851	      7.09702572	      1.56973673	     11.35856617	    -16.61351224	     -3.02883013	     39.06909619	     45.66538118	      0.00000000	      0.00000000	     13.98627834	     -9.30358533	     -5.95384498	     48.55470124	     46.78321025	      0.00000000	      0.00000000
     52.75285714	     -1.26001910	     -4.83364880	      0.24437434	      1.05009471	      0.93027698	      0.49843598	     12.98815405	      2.13906937	    -14.74049403	     19.82812732	     19.82812732	     10.06594838	     -0.38548365	     -5.38979395	     19.93502420	    -13.02310134	     -2.14573546	     55.56691665	     55.56691665	     13.19309813	    -17.86101550	      9.71452802	    -10.09665250	      6.96565984	      1.67251828	     12.56029187	    -16.87573124	     -2.78051948	     39.48936216	     45.64734795	      0.00000000	      0.00000000	     13.36365071	     -9.10485380	     -6.16234146	     46.76885079	     46.77315772	      0.00000000	      0.00000000
     52.76571429	     -1.29607267	     -4.73629387	      0.62161216	      1.04881856	      0.93094913	      0.49980845	     12.46613075	      2.18267113	    -14.96303652	     19.29940910	     19.29940910	     10.07564598	     -0.39283032	     -5.57909503	     21.32891146	    -13.11576741	     -1.98711475	     55.76974842	     55.76974842	     13.32622356	    -17.99261423	     10.82257120	    -10.13742352	      6.80312465	      1.99104948	     13.63461647	    -17.28491981	     -2.28412645	     39.58502314	     45.63130758	      0.00000000	      0.00000000	     13.15587769	     -8.68056281	     -6.68765810	     44.21590474	     46.78452035	      0.00000000	      0.00000000
     52.77857143	     -1.30767012	     -4.63198078	      1.00810935	      1.04748489	      0.93166872	      0.50109836	     11.90574403	      2.22533169	    -15.16968692	     18.74273087	     18.74273087	     10.13883380	     -0.38697017	     -5.62431794	     22.53648780	    -13.21213574	     -1.98331566	     55.32595360	     55.32595360	     13.30255904	    -18.10482907	     11.15948868	    -10.24420942	      6.63504687	      2.01325548	     14.83700700	    -17.49319345	     -2.15162482	     40.01364880	     45.61961121	      0.00000000	      0.00000000	     12.44660920	     -8.58588144	     -6.94201958	     42.51078505	     46.77986900	      0.00000000	      0.00000000
     52.79142857	     -1.37127436	     -4.58730300	      1.46321865	      1.04605028	      0.93229882	      0.50221105	     11.36981148	      2.32904169	    -15.46845268	     18.10532959	     18.10532959	     10.13965945	     -0.36989337	     -5.58560691	     23.72294173	    -13.28848690	     -1.90356683	     54.35677556	     54.35677556	     13.29877612	    -18.19891585	     11.37845794	    -10.31019707	      6.52635219	      1.99600071	     15.98591664	    -17.66902181	     -2.11586674	     40.48909930	     45.60909503	      0.00000000	      0.00000000	     11.61915503	     -8.56660659	     -7.08585899	     41.05105385	     46.77007017	      0.00000000	      0.00000000
     52.80428571	     -1.43280588	     -4.52251521	      1.91675549	      1.04455658	      0.93288337	      0.50314970	     10.84834265	      2.39453030	    -15.77446419	     17.49323039	     17.49323039	     10.13463210	     -0.32128735	     -5.68347460	     24.76382841	    -13.30454045	     -1.91184147	     52.86514587	     52.86514587	     13.31014089	    -18.21581965	     11.59388197	    -10.37797829	      6.41427815	      1.94970193	     17.17382481	    -17.86218211	     -1.97204006	     40.91786277	     45.59586694	      0.00000000	      0.00000000	     10.99787345	     -8.50754868	     -7.37467247	     38.99126701	     46.77407398	      0.00000000	      0.00000000
     52.81714286	     -1.53145210	     -4.44875104	      2.36543866	      1.04305270	      0.93332639	      0.50392453	     10.38406963	      2.43946948	    -16.10974973	     16.91243250	     16.91243250	     10.15647366	     -0.29978645	     -5.77723479	     25.71032924	    -13.26039880	     -1.99109558	     50.91851253	     50.91851253	     13.27474622	    -18.20940248	     11.76512482	    -10.39442807	      6.27182917	      1.96488920	     18.21766286	    -18.10719910	     -1.89907293	     41.39870091	     45.58289795	      0.00000000	      0.00000000	     10.29499702	     -8.44464499	     -7.64078260	     37.32261824	     46.78062665	      0.00000000	      0.00000000
     52.83000000	     -1.62614667	     -4.38458262	      2.83081060	      1.04152307	      0.93373022	      0.50449889	      9.91868548	      2.47814656	    -16.44264318	     16.33531089	     16.33531089	     10.13760938	     -0.21725826	     -5.87987309	     26.51162901	    -13.12110536	     -1.98610121	     48.55091756	     48.55091756	     13.13834742	    -18.11791530	     11.90969564	    -10.45121175	      6.17202724	      1.93850032	     19.25882973	    -18.29166855	     -1.85261292	     41.99779472	     45.56644483	      0.00000000	      0.00000000	      9.51417594	     -8.44974096	     -7.89781618	     35.70939633	     46.78838765	      0.00000000	      0.00000000
     52.84285714	     -1.74115496	     -4.33180217	      3.26975516	      1.04001778	      0.93398020	      0.50489916	      9.49775535	      2.51264910	    -16.79292395	     15.80908928	     15.80908928	     10.17222566	     -0.13402906	     -6.00751766	     27.20789587	    -12.94831144	     -2.04507703	     45.86823128	     45.86823128	     12.85639307	    -17.93939493	     12.07599194	    -10.47009385	      6.09549510	      1.93783162	     20.21517470	    -18.49145991	     -1.84242853	     42.62959338	     45.54973120	      0.00000000	      0.00000000	      8.70727980	     -8.46504796	     -8.11704008	     34.31566420	     46.79525265	      0.00000000	      0.00000000
